<svg width="162" height="23" viewBox="0 0 162 23" fill="none" xmlns="http://www.w3.org/2000/svg">
<path d="M22.3726 7.11468L9.53348 19.9537C8.95331 20.5339 9.36158 21.5331 10.1889 21.5331H35.6091C36.4257 21.5331 36.8447 20.5447 36.2645 19.9645L23.6833 7.12543C23.3288 6.76013 22.7378 6.76013 22.3726 7.11468Z" fill="#D3F702"/>
<path d="M12.0511 13.479H0.784675C0.0823031 13.479 -0.268883 12.6153 0.243659 12.1312L12.0891 0.693908C12.4308 0.361705 12.8864 0.171875 13.3704 0.171875H24.5989C25.2633 0.171875 25.5955 0.978654 25.1209 1.44374L13.6931 12.7956C13.2565 13.2322 12.6681 13.479 12.0511 13.479Z" fill="#D3F702"/>
<path d="M45.6528 22.2367V0.962891H48.3192V19.8541L47.3831 19.4286L62.757 0.962891H65.707L47.9788 22.2367H45.6528ZM55.7508 11.2594L57.5378 9.18878L66.0474 22.2367H62.9556L55.7508 11.2594Z" fill="white"/>
<path d="M78.1375 6.94058H80.4907V22.2367H78.1375V19.4423C77.7551 20.5306 76.1372 22.5309 72.8132 22.5309C69.7834 22.5309 67.3125 20.8836 67.3125 16.383V6.94058H69.6657V15.883C69.6657 18.7951 70.9012 20.5306 73.6369 20.5306C76.3431 20.5306 78.1375 18.7951 78.1375 15.883V6.94058Z" fill="white"/>
<path d="M90.5355 6.82292C90.9179 6.82292 91.3297 6.85234 91.6827 6.97V8.97027C91.3003 8.91144 90.9473 8.88202 90.5649 8.88202C87.4763 8.88202 85.6525 10.9117 85.6525 14.1768V22.2367H83.2992V6.94058H85.6525V10.3528H85.7113C86.1231 8.76436 87.5645 6.82292 90.5355 6.82292Z" fill="white"/>
<path d="M93.4545 22.2367V1.64575H95.8078V22.2367H93.4545Z" fill="white"/>
<path d="M107.554 22.5309C101.818 22.5309 98.0526 18.6774 98.0526 11.9413C98.0526 5.23447 101.818 1.38101 107.554 1.38101C112.054 1.38101 115.584 3.61661 116.055 8.49961H112.29C111.613 5.88162 109.907 4.7344 107.554 4.7344C103.818 4.7344 102.024 7.64656 102.024 11.9413C102.024 16.2359 103.759 19.1775 107.554 19.1775C109.848 19.1775 111.613 18.0303 112.29 15.3829H116.055C115.584 20.2953 112.054 22.5309 107.554 22.5309Z" fill="white"/>
<path d="M117.928 22.2367V1.64575H121.693V22.2367H117.928Z" fill="white"/>
<path d="M134.734 6.94058H138.5V22.2367H134.734V19.0893H134.587C134.293 20.413 132.822 22.5309 129.587 22.5309C126.616 22.5309 124.262 20.7071 124.262 16.5595V6.94058H128.028V15.677C128.028 18.1774 129.116 19.4128 131.175 19.4128C133.205 19.4128 134.734 18.1774 134.734 15.677V6.94058Z" fill="white"/>
<path d="M149.555 6.64642C152.849 6.64642 156.291 8.99968 156.291 14.5887C156.291 20.1777 152.849 22.5309 149.555 22.5309C147.319 22.5309 145.554 21.4719 144.819 20.0306V22.2367H141.054V1.64575H144.819V9.14676C145.554 7.70539 147.319 6.64642 149.555 6.64642ZM148.672 19.3834C150.79 19.3834 152.761 17.8832 152.761 14.5887C152.761 11.2941 150.79 9.79391 148.672 9.79391C146.613 9.79391 144.642 11.2941 144.642 14.5887C144.642 17.8832 146.613 19.3834 148.672 19.3834Z" fill="white"/>
<circle cx="159.335" cy="20.833" r="1.75093" fill="white"/>
</svg>
