<svg width="206" height="25" viewBox="0 0 206 25" fill="none" xmlns="http://www.w3.org/2000/svg">
<path d="M19.8867 8.7098L8.47421 20.1223C7.9585 20.638 8.3214 21.5262 9.05677 21.5262H31.6526C32.3784 21.5262 32.7509 20.6476 32.2351 20.1319L21.0518 8.71935C20.7367 8.39464 20.2114 8.39464 19.8867 8.7098Z" fill="#D3F702"/>
<path d="M10.7121 14.3676H0.697489C0.0731583 14.3676 -0.239007 13.5998 0.216586 13.1696L10.7458 3.00309C11.0496 2.7078 11.4545 2.53906 11.8848 2.53906H21.8657C22.4563 2.53906 22.7516 3.2562 22.3297 3.66961L12.1717 13.7601C11.7836 14.1482 11.2605 14.3676 10.7121 14.3676Z" fill="#D3F702"/>
<path d="M40.5801 22.1523V3.24219H42.9501V20.0344L42.1181 19.6562L55.7838 3.24219H58.406L42.6476 22.1523H40.5801ZM49.5561 12.3947L51.1445 10.5541L58.7086 22.1523H55.9603L49.5561 12.3947Z" fill="white"/>
<path d="M69.4553 8.55569H71.5471V22.1523H69.4553V19.6683C69.1154 20.6357 67.6773 22.4138 64.7226 22.4138C62.0295 22.4138 59.8331 20.9495 59.8331 16.949V8.55569H61.9249V16.5045C61.9249 19.0931 63.0231 20.6357 65.4548 20.6357C67.8603 20.6357 69.4553 19.0931 69.4553 16.5045V8.55569Z" fill="white"/>
<path d="M80.4758 8.4511C80.8157 8.4511 81.1818 8.47725 81.4955 8.58184V10.3599C81.1556 10.3076 80.8418 10.2814 80.5019 10.2814C77.7565 10.2814 76.1353 12.0856 76.1353 14.9879V22.1523H74.0435V8.55569H76.1353V11.5888H76.1876C76.5537 10.1768 77.8349 8.4511 80.4758 8.4511Z" fill="white"/>
<path d="M83.0705 22.1523V3.84918H85.1623V22.1523H83.0705Z" fill="white"/>
<path d="M95.6032 22.4138C90.5045 22.4138 87.1576 18.9885 87.1576 13.0007C87.1576 7.03915 90.5045 3.61385 95.6032 3.61385C99.6037 3.61385 102.741 5.60105 103.16 9.9415H99.8129C99.2115 7.61439 97.695 6.59464 95.6032 6.59464C92.2825 6.59464 90.6875 9.18323 90.6875 13.0007C90.6875 16.8182 92.2302 19.433 95.6032 19.433C97.6427 19.433 99.2115 18.4132 99.8129 16.06H103.16C102.741 20.4266 99.6037 22.4138 95.6032 22.4138Z" fill="white"/>
<path d="M104.824 22.1523V3.84918H108.171V22.1523H104.824Z" fill="white"/>
<path d="M119.764 8.55569H123.111V22.1523H119.764V19.3545H119.633C119.372 20.5312 118.064 22.4138 115.188 22.4138C112.547 22.4138 110.455 20.7926 110.455 17.1059V8.55569H113.802V16.3214C113.802 18.544 114.77 19.6421 116.6 19.6421C118.404 19.6421 119.764 18.544 119.764 16.3214V8.55569Z" fill="white"/>
<path d="M132.937 8.29422C135.866 8.29422 138.925 10.386 138.925 15.354C138.925 20.322 135.866 22.4138 132.937 22.4138C130.95 22.4138 129.381 21.4725 128.728 20.1912V22.1523H125.381V3.84918H128.728V10.5167C129.381 9.23552 130.95 8.29422 132.937 8.29422ZM132.153 19.616C134.035 19.616 135.787 18.2825 135.787 15.354C135.787 12.4255 134.035 11.092 132.153 11.092C130.323 11.092 128.571 12.4255 128.571 15.354C128.571 18.2825 130.323 19.616 132.153 19.616Z" fill="white"/>
<circle cx="141.631" cy="20.904" r="1.55639" fill="white"/>
<rect x="151.688" y="0.5" width="53" height="24" rx="12" fill="white" fill-opacity="0.1"/>
<rect x="151.688" y="0.5" width="53" height="24" rx="12" stroke="white"/>
<path d="M166.702 17.5L163.049 8.4H164.154L167.859 17.5H166.702ZM159.305 17.5L163.009 8.4H164.128L160.475 17.5H159.305ZM161.06 14.913V13.925H166.117V14.913H161.06ZM173.616 17.5L173.564 16.291V8.4H174.604V17.5H173.616ZM171.367 17.656C170.787 17.656 170.275 17.513 169.833 17.227C169.391 16.941 169.045 16.5423 168.793 16.031C168.551 15.511 168.429 14.9173 168.429 14.25C168.429 13.574 168.551 12.9803 168.793 12.469C169.045 11.9577 169.391 11.559 169.833 11.273C170.275 10.987 170.787 10.844 171.367 10.844C171.913 10.844 172.39 10.987 172.797 11.273C173.213 11.559 173.534 11.9577 173.759 12.469C173.985 12.9803 174.097 13.574 174.097 14.25C174.097 14.9173 173.985 15.511 173.759 16.031C173.534 16.5423 173.213 16.941 172.797 17.227C172.39 17.513 171.913 17.656 171.367 17.656ZM171.601 16.707C171.983 16.707 172.321 16.603 172.615 16.395C172.91 16.187 173.14 15.8967 173.304 15.524C173.478 15.1513 173.564 14.7267 173.564 14.25C173.564 13.7733 173.478 13.3487 173.304 12.976C173.14 12.6033 172.91 12.313 172.615 12.105C172.321 11.897 171.978 11.793 171.588 11.793C171.181 11.793 170.817 11.897 170.496 12.105C170.184 12.313 169.937 12.6033 169.755 12.976C169.573 13.3487 169.482 13.7733 169.482 14.25C169.482 14.7267 169.573 15.1513 169.755 15.524C169.937 15.8967 170.189 16.187 170.509 16.395C170.83 16.603 171.194 16.707 171.601 16.707ZM176.424 17.5V11H177.399L177.451 11.91C177.65 11.5633 177.906 11.299 178.218 11.117C178.53 10.935 178.894 10.844 179.31 10.844C179.83 10.844 180.272 10.9653 180.636 11.208C181.008 11.4507 181.277 11.819 181.442 12.313C181.624 11.8363 181.888 11.4723 182.235 11.221C182.59 10.9697 183.01 10.844 183.496 10.844C184.224 10.844 184.796 11.0867 185.212 11.572C185.636 12.0573 185.844 12.794 185.836 13.782V17.5H184.796V14.172C184.796 13.5307 184.726 13.041 184.588 12.703C184.458 12.365 184.28 12.1353 184.055 12.014C183.829 11.884 183.569 11.819 183.275 11.819C182.763 11.819 182.365 12.0227 182.079 12.43C181.793 12.8287 181.65 13.3963 181.65 14.133V17.5H180.61V14.172C180.61 13.5307 180.54 13.041 180.402 12.703C180.272 12.365 180.09 12.1353 179.856 12.014C179.63 11.884 179.37 11.819 179.076 11.819C178.573 11.819 178.179 12.0227 177.893 12.43C177.607 12.8287 177.464 13.3963 177.464 14.133V17.5H176.424ZM187.546 17.5V11H188.586V17.5H187.546ZM188.079 9.492C187.906 9.492 187.754 9.427 187.624 9.297C187.494 9.167 187.429 9.01533 187.429 8.842C187.429 8.66 187.494 8.50833 187.624 8.387C187.754 8.257 187.906 8.192 188.079 8.192C188.261 8.192 188.413 8.257 188.534 8.387C188.664 8.50833 188.729 8.66 188.729 8.842C188.729 9.01533 188.664 9.167 188.534 9.297C188.413 9.427 188.261 9.492 188.079 9.492ZM190.503 17.5V11H191.478L191.543 12.196V17.5H190.503ZM195.066 17.5V14.172H196.106V17.5H195.066ZM195.066 14.172C195.066 13.5307 194.992 13.041 194.845 12.703C194.697 12.365 194.494 12.1353 194.234 12.014C193.974 11.884 193.679 11.819 193.35 11.819C192.778 11.819 192.331 12.0227 192.011 12.43C191.699 12.8287 191.543 13.3963 191.543 14.133H191.036C191.036 13.4483 191.135 12.859 191.335 12.365C191.534 11.871 191.824 11.494 192.206 11.234C192.587 10.974 193.046 10.844 193.584 10.844C194.095 10.844 194.537 10.948 194.91 11.156C195.291 11.3553 195.586 11.676 195.794 12.118C196.01 12.56 196.114 13.1407 196.106 13.86V14.172H195.066Z" fill="white"/>
</svg>
