<svg width="206" height="25" viewBox="0 0 206 25" fill="none" xmlns="http://www.w3.org/2000/svg">
<path d="M19.8867 8.7098L8.47421 20.1223C7.9585 20.638 8.3214 21.5262 9.05677 21.5262H31.6526C32.3784 21.5262 32.7509 20.6476 32.2351 20.1319L21.0518 8.71935C20.7367 8.39464 20.2114 8.39464 19.8867 8.7098Z" fill="#D3F702"/>
<path d="M10.7121 14.3676H0.697489C0.0731583 14.3676 -0.239007 13.5998 0.216586 13.1696L10.7458 3.00309C11.0496 2.7078 11.4545 2.53906 11.8848 2.53906H21.8657C22.4563 2.53906 22.7516 3.2562 22.3297 3.66961L12.1717 13.7601C11.7836 14.1482 11.2605 14.3676 10.7121 14.3676Z" fill="#D3F702"/>
<path d="M40.5801 22.1523V3.24219H42.9501V20.0344L42.1181 19.6562L55.7838 3.24219H58.406L42.6476 22.1523H40.5801ZM49.5561 12.3947L51.1445 10.5541L58.7086 22.1523H55.9603L49.5561 12.3947Z" fill="white"/>
<path d="M69.4553 8.55569H71.5471V22.1523H69.4553V19.6683C69.1154 20.6357 67.6773 22.4138 64.7226 22.4138C62.0295 22.4138 59.8331 20.9495 59.8331 16.949V8.55569H61.9249V16.5045C61.9249 19.0931 63.0231 20.6357 65.4548 20.6357C67.8603 20.6357 69.4553 19.0931 69.4553 16.5045V8.55569Z" fill="white"/>
<path d="M80.4758 8.4511C80.8157 8.4511 81.1818 8.47725 81.4955 8.58184V10.3599C81.1556 10.3076 80.8418 10.2814 80.5019 10.2814C77.7565 10.2814 76.1353 12.0856 76.1353 14.9879V22.1523H74.0435V8.55569H76.1353V11.5888H76.1876C76.5537 10.1768 77.8349 8.4511 80.4758 8.4511Z" fill="white"/>
<path d="M83.0705 22.1523V3.84918H85.1623V22.1523H83.0705Z" fill="white"/>
<path d="M95.6032 22.4138C90.5045 22.4138 87.1576 18.9885 87.1576 13.0007C87.1576 7.03915 90.5045 3.61385 95.6032 3.61385C99.6037 3.61385 102.741 5.60105 103.16 9.9415H99.8129C99.2115 7.61439 97.695 6.59464 95.6032 6.59464C92.2825 6.59464 90.6875 9.18323 90.6875 13.0007C90.6875 16.8182 92.2302 19.433 95.6032 19.433C97.6427 19.433 99.2115 18.4132 99.8129 16.06H103.16C102.741 20.4266 99.6037 22.4138 95.6032 22.4138Z" fill="white"/>
<path d="M104.824 22.1523V3.84918H108.171V22.1523H104.824Z" fill="white"/>
<path d="M119.764 8.55569H123.111V22.1523H119.764V19.3545H119.633C119.372 20.5312 118.064 22.4138 115.188 22.4138C112.547 22.4138 110.455 20.7926 110.455 17.1059V8.55569H113.802V16.3214C113.802 18.544 114.77 19.6421 116.6 19.6421C118.404 19.6421 119.764 18.544 119.764 16.3214V8.55569Z" fill="white"/>
<path d="M132.937 8.29422C135.866 8.29422 138.925 10.386 138.925 15.354C138.925 20.322 135.866 22.4138 132.937 22.4138C130.95 22.4138 129.381 21.4725 128.728 20.1912V22.1523H125.381V3.84918H128.728V10.5167C129.381 9.23552 130.95 8.29422 132.937 8.29422ZM132.153 19.616C134.035 19.616 135.787 18.2825 135.787 15.354C135.787 12.4255 134.035 11.092 132.153 11.092C130.323 11.092 128.571 12.4255 128.571 15.354C128.571 18.2825 130.323 19.616 132.153 19.616Z" fill="white"/>
<circle cx="141.631" cy="20.904" r="1.55639" fill="white"/>
<rect x="151.688" y="0.5" width="38" height="24" rx="12" fill="white" fill-opacity="0.1"/>
<rect x="151.688" y="0.5" width="38" height="24" rx="12" stroke="white"/>
<path d="M163.751 17.695C163.066 17.695 162.459 17.552 161.931 17.266C161.411 16.9713 161.003 16.5683 160.709 16.057C160.414 15.537 160.267 14.939 160.267 14.263V8.4H161.372V14.263C161.372 14.7397 161.471 15.1643 161.671 15.537C161.879 15.901 162.165 16.187 162.528 16.395C162.893 16.5943 163.309 16.694 163.777 16.694C164.253 16.694 164.674 16.5943 165.038 16.395C165.41 16.187 165.696 15.901 165.896 15.537C166.104 15.1643 166.208 14.7397 166.208 14.263V8.4H167.3V14.263C167.3 14.939 167.152 15.537 166.858 16.057C166.563 16.5683 166.147 16.9713 165.61 17.266C165.072 17.552 164.453 17.695 163.751 17.695ZM169.588 17.5V8.4H170.693V17.5H169.588ZM176.952 17.656C176.086 17.656 175.319 17.4567 174.651 17.058C173.984 16.6507 173.46 16.096 173.078 15.394C172.697 14.6833 172.506 13.8687 172.506 12.95C172.506 12.0313 172.693 11.221 173.065 10.519C173.447 9.80833 173.967 9.25367 174.625 8.855C175.293 8.44767 176.055 8.244 176.913 8.244C177.459 8.244 177.984 8.34367 178.486 8.543C178.989 8.73367 179.44 9.00667 179.838 9.362C180.237 9.70867 180.545 10.1117 180.761 10.571L179.812 11.052C179.639 10.688 179.401 10.3717 179.097 10.103C178.794 9.83433 178.456 9.62633 178.083 9.479C177.711 9.323 177.321 9.245 176.913 9.245C176.281 9.245 175.713 9.40533 175.21 9.726C174.708 10.038 174.313 10.4713 174.027 11.026C173.75 11.5807 173.611 12.222 173.611 12.95C173.611 13.678 173.754 14.3237 174.04 14.887C174.326 15.4503 174.721 15.8923 175.223 16.213C175.735 16.525 176.311 16.681 176.952 16.681C177.368 16.681 177.763 16.5987 178.135 16.434C178.508 16.2607 178.842 16.0267 179.136 15.732C179.44 15.4373 179.678 15.0993 179.851 14.718L180.813 15.199C180.588 15.6757 180.276 16.1003 179.877 16.473C179.487 16.8457 179.037 17.136 178.525 17.344C178.023 17.552 177.498 17.656 176.952 17.656Z" fill="white"/>
</svg>
